<mxfile host="app.diagrams.net" modified="2023-11-17T03:08:31.296Z" agent="Mozilla/5.0 (Windows NT 10.0; Win64; x64) AppleWebKit/537.36 (KHTML, like Gecko) Chrome/119.0.0.0 Safari/537.36" etag="yzPBIF4sE0eW--Mq7dT8" version="22.1.2" type="device" pages="2">
  <diagram name="PÃ¡gina-1" id="GHjbAym7o5mRyXtKowVg">
    <mxGraphModel dx="878" dy="486" grid="1" gridSize="10" guides="1" tooltips="1" connect="1" arrows="1" fold="1" page="1" pageScale="1" pageWidth="827" pageHeight="1169" math="0" shadow="0">
      <root>
        <mxCell id="0" />
        <mxCell id="1" parent="0" />
        <mxCell id="djjFZ4jI8jWfnVrqDTp0-1" value="Person" style="swimlane;fontStyle=0;childLayout=stackLayout;horizontal=1;startSize=26;fillColor=none;horizontalStack=0;resizeParent=1;resizeParentMax=0;resizeLast=0;collapsible=1;marginBottom=0;whiteSpace=wrap;html=1;" vertex="1" parent="1">
          <mxGeometry x="140" y="300" width="140" height="52" as="geometry" />
        </mxCell>
        <mxCell id="djjFZ4jI8jWfnVrqDTp0-2" value="+ field: type" style="text;strokeColor=none;fillColor=none;align=left;verticalAlign=top;spacingLeft=4;spacingRight=4;overflow=hidden;rotatable=0;points=[[0,0.5],[1,0.5]];portConstraint=eastwest;whiteSpace=wrap;html=1;" vertex="1" parent="djjFZ4jI8jWfnVrqDTp0-1">
          <mxGeometry y="26" width="140" height="26" as="geometry" />
        </mxCell>
        <mxCell id="djjFZ4jI8jWfnVrqDTp0-13" style="edgeStyle=orthogonalEdgeStyle;rounded=0;orthogonalLoop=1;jettySize=auto;html=1;entryX=0;entryY=0.5;entryDx=0;entryDy=0;" edge="1" parent="1" source="djjFZ4jI8jWfnVrqDTp0-5" target="djjFZ4jI8jWfnVrqDTp0-9">
          <mxGeometry relative="1" as="geometry" />
        </mxCell>
        <mxCell id="djjFZ4jI8jWfnVrqDTp0-5" value="Organization" style="swimlane;fontStyle=0;childLayout=stackLayout;horizontal=1;startSize=26;fillColor=none;horizontalStack=0;resizeParent=1;resizeParentMax=0;resizeLast=0;collapsible=1;marginBottom=0;whiteSpace=wrap;html=1;" vertex="1" parent="1">
          <mxGeometry x="280" y="140" width="140" height="52" as="geometry" />
        </mxCell>
        <mxCell id="djjFZ4jI8jWfnVrqDTp0-6" value="+ field: type" style="text;strokeColor=none;fillColor=none;align=left;verticalAlign=top;spacingLeft=4;spacingRight=4;overflow=hidden;rotatable=0;points=[[0,0.5],[1,0.5]];portConstraint=eastwest;whiteSpace=wrap;html=1;" vertex="1" parent="djjFZ4jI8jWfnVrqDTp0-5">
          <mxGeometry y="26" width="140" height="26" as="geometry" />
        </mxCell>
        <mxCell id="djjFZ4jI8jWfnVrqDTp0-15" style="edgeStyle=orthogonalEdgeStyle;rounded=0;orthogonalLoop=1;jettySize=auto;html=1;entryX=-0.021;entryY=-0.192;entryDx=0;entryDy=0;entryPerimeter=0;" edge="1" parent="djjFZ4jI8jWfnVrqDTp0-5" source="djjFZ4jI8jWfnVrqDTp0-5" target="djjFZ4jI8jWfnVrqDTp0-6">
          <mxGeometry relative="1" as="geometry">
            <mxPoint x="30" y="120" as="targetPoint" />
            <Array as="points">
              <mxPoint x="70" y="72" />
              <mxPoint x="-20" y="72" />
              <mxPoint x="-20" y="21" />
            </Array>
          </mxGeometry>
        </mxCell>
        <mxCell id="djjFZ4jI8jWfnVrqDTp0-9" value="CategoryOrganization" style="swimlane;fontStyle=0;childLayout=stackLayout;horizontal=1;startSize=26;fillColor=none;horizontalStack=0;resizeParent=1;resizeParentMax=0;resizeLast=0;collapsible=1;marginBottom=0;whiteSpace=wrap;html=1;" vertex="1" parent="1">
          <mxGeometry x="490" y="210" width="140" height="52" as="geometry" />
        </mxCell>
        <mxCell id="djjFZ4jI8jWfnVrqDTp0-10" value="+ field: type" style="text;strokeColor=none;fillColor=none;align=left;verticalAlign=top;spacingLeft=4;spacingRight=4;overflow=hidden;rotatable=0;points=[[0,0.5],[1,0.5]];portConstraint=eastwest;whiteSpace=wrap;html=1;" vertex="1" parent="djjFZ4jI8jWfnVrqDTp0-9">
          <mxGeometry y="26" width="140" height="26" as="geometry" />
        </mxCell>
        <mxCell id="djjFZ4jI8jWfnVrqDTp0-11" value="Category" style="swimlane;fontStyle=0;childLayout=stackLayout;horizontal=1;startSize=26;fillColor=none;horizontalStack=0;resizeParent=1;resizeParentMax=0;resizeLast=0;collapsible=1;marginBottom=0;whiteSpace=wrap;html=1;" vertex="1" parent="1">
          <mxGeometry x="670" y="140" width="140" height="52" as="geometry" />
        </mxCell>
        <mxCell id="djjFZ4jI8jWfnVrqDTp0-12" value="+ field: type" style="text;strokeColor=none;fillColor=none;align=left;verticalAlign=top;spacingLeft=4;spacingRight=4;overflow=hidden;rotatable=0;points=[[0,0.5],[1,0.5]];portConstraint=eastwest;whiteSpace=wrap;html=1;" vertex="1" parent="djjFZ4jI8jWfnVrqDTp0-11">
          <mxGeometry y="26" width="140" height="26" as="geometry" />
        </mxCell>
        <mxCell id="djjFZ4jI8jWfnVrqDTp0-14" style="edgeStyle=orthogonalEdgeStyle;rounded=0;orthogonalLoop=1;jettySize=auto;html=1;entryX=1.029;entryY=0.154;entryDx=0;entryDy=0;entryPerimeter=0;" edge="1" parent="1" source="djjFZ4jI8jWfnVrqDTp0-11" target="djjFZ4jI8jWfnVrqDTp0-10">
          <mxGeometry relative="1" as="geometry" />
        </mxCell>
      </root>
    </mxGraphModel>
  </diagram>
  <diagram id="vTi-G79DSDbQBjkH70hj" name="Domotica">
    <mxGraphModel dx="878" dy="486" grid="1" gridSize="10" guides="1" tooltips="1" connect="1" arrows="1" fold="1" page="1" pageScale="1" pageWidth="827" pageHeight="1169" math="0" shadow="0">
      <root>
        <mxCell id="0" />
        <mxCell id="1" parent="0" />
        <mxCell id="eAyhrzm5xPaionKx1wUY-1" value="" style="html=1;verticalLabelPosition=bottom;align=center;labelBackgroundColor=#ffffff;verticalAlign=top;strokeWidth=2;strokeColor=#0080F0;shadow=0;dashed=0;shape=mxgraph.ios7.icons.home;" vertex="1" parent="1">
          <mxGeometry x="330" y="140" width="60" height="60" as="geometry" />
        </mxCell>
        <mxCell id="eAyhrzm5xPaionKx1wUY-2" value="Casa" style="text;html=1;strokeColor=none;fillColor=none;align=center;verticalAlign=middle;whiteSpace=wrap;rounded=0;" vertex="1" parent="1">
          <mxGeometry x="330" y="200" width="60" height="30" as="geometry" />
        </mxCell>
        <mxCell id="eAyhrzm5xPaionKx1wUY-4" value="" style="rounded=0;whiteSpace=wrap;html=1;" vertex="1" parent="1">
          <mxGeometry x="324" y="260" width="40" height="30" as="geometry" />
        </mxCell>
        <mxCell id="eAyhrzm5xPaionKx1wUY-5" value="" style="rounded=0;whiteSpace=wrap;html=1;" vertex="1" parent="1">
          <mxGeometry x="374" y="260" width="40" height="30" as="geometry" />
        </mxCell>
        <mxCell id="eAyhrzm5xPaionKx1wUY-6" value="" style="rounded=0;whiteSpace=wrap;html=1;" vertex="1" parent="1">
          <mxGeometry x="324" y="300" width="40" height="30" as="geometry" />
        </mxCell>
        <mxCell id="eAyhrzm5xPaionKx1wUY-7" value="" style="rounded=0;whiteSpace=wrap;html=1;" vertex="1" parent="1">
          <mxGeometry x="374" y="300" width="40" height="30" as="geometry" />
        </mxCell>
      </root>
    </mxGraphModel>
  </diagram>
</mxfile>
